<?xml version="1.0" encoding="UTF-8"?>
<svg width="700pt" height="700pt" version="1.1" viewBox="0 0 700 700" xmlns="http://www.w3.org/2000/svg" xmlns:xlink="http://www.w3.org/1999/xlink">
 <defs>
  <symbol id="v" overflow="visible">
   <path d="m3.7188-0.21875c-0.1875 0.09375-0.38672 0.16797-0.59375 0.21875-0.21094 0.050781-0.42969 0.078125-0.65625 0.078125-0.66797 0-1.1992-0.1875-1.5938-0.5625-0.39844-0.375-0.59375-0.89062-0.59375-1.5469 0-0.64453 0.19531-1.1562 0.59375-1.5312 0.39453-0.375 0.92578-0.5625 1.5938-0.5625 0.22656 0 0.44531 0.027344 0.65625 0.078125 0.20703 0.054687 0.40625 0.125 0.59375 0.21875v0.84375c-0.1875-0.13281-0.375-0.23438-0.5625-0.29688s-0.38672-0.09375-0.59375-0.09375c-0.375 0-0.67188 0.12109-0.89062 0.35938-0.21094 0.24219-0.3125 0.57031-0.3125 0.98438 0 0.42969 0.10156 0.76172 0.3125 1 0.21875 0.24219 0.51562 0.35938 0.89062 0.35938 0.20703 0 0.40625-0.03125 0.59375-0.09375s0.375-0.16016 0.5625-0.29688z"/>
  </symbol>
  <symbol id="d" overflow="visible">
   <path d="m2.7344-2.2188c-0.09375-0.03125-0.18359-0.054688-0.26562-0.078125-0.085938-0.019531-0.16797-0.03125-0.25-0.03125-0.25 0-0.44531 0.085937-0.57812 0.25-0.13672 0.15625-0.20312 0.38281-0.20312 0.67188v1.4062h-0.96875v-3.0469h0.96875v0.5c0.125-0.19531 0.26562-0.33594 0.42188-0.42188 0.16406-0.09375 0.36328-0.14062 0.59375-0.14062h0.09375c0.039063 0 0.097656 0.007813 0.17188 0.015625z"/>
  </symbol>
  <symbol id="b" overflow="visible">
   <path d="m3.5-1.5312v0.28125h-2.2656c0.019531 0.23047 0.097656 0.40234 0.23438 0.51562 0.14453 0.11719 0.34375 0.17188 0.59375 0.17188 0.20703 0 0.41406-0.03125 0.625-0.09375 0.21875-0.0625 0.44141-0.15625 0.67188-0.28125v0.75c-0.23047 0.09375-0.46094 0.16406-0.6875 0.20312-0.23047 0.039062-0.46094 0.0625-0.6875 0.0625-0.55469 0-0.98438-0.14062-1.2969-0.42188-0.30469-0.28125-0.45312-0.67188-0.45312-1.1719s0.14844-0.89062 0.45312-1.1719c0.30078-0.28125 0.71094-0.42188 1.2344-0.42188 0.47656 0 0.85938 0.14844 1.1406 0.4375 0.28906 0.28125 0.4375 0.66406 0.4375 1.1406zm-1-0.32812c0-0.17578-0.054688-0.32031-0.15625-0.4375-0.10547-0.11328-0.24609-0.17188-0.42188-0.17188-0.1875 0-0.34375 0.054688-0.46875 0.15625-0.11719 0.10547-0.1875 0.25781-0.21875 0.45312z"/>
  </symbol>
  <symbol id="l" overflow="visible">
   <path d="m1.8281-1.375c-0.19922 0-0.35156 0.039062-0.45312 0.10938-0.10547 0.074219-0.15625 0.17188-0.15625 0.29688s0.039062 0.22656 0.125 0.29688c0.082031 0.074219 0.19531 0.10938 0.34375 0.10938 0.1875 0 0.33594-0.066406 0.45312-0.20312 0.125-0.13281 0.1875-0.29688 0.1875-0.48438v-0.125zm1.4844-0.35938v1.7344h-0.98438v-0.45312c-0.125 0.1875-0.27344 0.32422-0.4375 0.40625-0.15625 0.082031-0.35547 0.125-0.59375 0.125-0.3125 0-0.57031-0.085938-0.76562-0.26562-0.19922-0.1875-0.29688-0.42578-0.29688-0.71875 0-0.36328 0.11719-0.62891 0.35938-0.79688 0.25-0.16406 0.64062-0.25 1.1719-0.25h0.5625v-0.078125c0-0.14453-0.0625-0.25391-0.1875-0.32812-0.11719-0.070313-0.29688-0.10938-0.54688-0.10938-0.21094 0-0.40625 0.023438-0.59375 0.0625-0.17969 0.042969-0.34375 0.10547-0.5 0.1875v-0.73438c0.20703-0.050781 0.41406-0.085937 0.625-0.10938 0.21875-0.03125 0.42969-0.046875 0.64062-0.046875 0.53906 0 0.92969 0.10938 1.1719 0.32812 0.25 0.21094 0.375 0.55859 0.375 1.0469z"/>
  </symbol>
  <symbol id="a" overflow="visible">
   <path d="m1.5312-3.9062v0.85938h1v0.70312h-1v1.2812c0 0.14844 0.023438 0.24609 0.078125 0.29688 0.0625 0.042969 0.17578 0.0625 0.34375 0.0625h0.5v0.70312h-0.84375c-0.38672 0-0.65625-0.078125-0.8125-0.23438-0.15625-0.16406-0.23438-0.44141-0.23438-0.82812v-1.2812h-0.48438v-0.70312h0.48438v-0.85938z"/>
  </symbol>
  <symbol id="f" overflow="visible">
   <path d="m2.5312-2.5938v-1.625h0.98438v4.2188h-0.98438v-0.4375c-0.13672 0.17969-0.28125 0.30859-0.4375 0.39062-0.15625 0.082031-0.34375 0.125-0.5625 0.125-0.375 0-0.68359-0.14453-0.92188-0.4375-0.24219-0.30078-0.35938-0.6875-0.35938-1.1562s0.11719-0.84766 0.35938-1.1406c0.23828-0.30078 0.54688-0.45312 0.92188-0.45312 0.20703 0 0.39062 0.042969 0.54688 0.125 0.16406 0.085937 0.31641 0.21484 0.45312 0.39062zm-0.64062 1.9688c0.20703 0 0.36328-0.070312 0.46875-0.21875 0.11328-0.15625 0.17188-0.37891 0.17188-0.67188 0-0.28906-0.058594-0.50781-0.17188-0.65625-0.10547-0.15625-0.26172-0.23438-0.46875-0.23438-0.19922 0-0.35547 0.078125-0.46875 0.23438-0.11719 0.14844-0.17188 0.36719-0.17188 0.65625 0 0.29297 0.054688 0.51562 0.17188 0.67188 0.11328 0.14844 0.26953 0.21875 0.46875 0.21875z"/>
  </symbol>
  <symbol id="k" overflow="visible">
   <path d="m2.0938-0.625c0.19531 0 0.35156-0.070312 0.46875-0.21875 0.11328-0.15625 0.17188-0.37891 0.17188-0.67188 0-0.28906-0.058594-0.50781-0.17188-0.65625-0.11719-0.15625-0.27344-0.23438-0.46875-0.23438-0.21094 0-0.37109 0.078125-0.48438 0.23438-0.11719 0.14844-0.17188 0.36719-0.17188 0.65625 0 0.28125 0.054688 0.5 0.17188 0.65625 0.11328 0.15625 0.27344 0.23438 0.48438 0.23438zm-0.65625-1.9688c0.13281-0.17578 0.28125-0.30469 0.4375-0.39062 0.16406-0.082031 0.35938-0.125 0.57812-0.125 0.375 0 0.67969 0.15234 0.92188 0.45312 0.23828 0.29297 0.35938 0.67188 0.35938 1.1406s-0.12109 0.85547-0.35938 1.1562c-0.24219 0.29297-0.54688 0.4375-0.92188 0.4375-0.21875 0-0.41406-0.042969-0.57812-0.125-0.15625-0.082031-0.30469-0.21094-0.4375-0.39062v0.4375h-0.96875v-4.2188h0.96875z"/>
  </symbol>
  <symbol id="e" overflow="visible">
   <path d="m0.0625-3.0469h0.98438l0.8125 2.0625 0.6875-2.0625h0.98438l-1.2812 3.3281c-0.13672 0.34375-0.28906 0.58203-0.45312 0.71875-0.16797 0.13281-0.39062 0.20312-0.67188 0.20312h-0.5625v-0.64062h0.29688c0.16406 0 0.28516-0.027344 0.35938-0.078125 0.070312-0.054687 0.12891-0.14844 0.17188-0.28125l0.03125-0.09375z"/>
  </symbol>
  <symbol id="j" overflow="visible">
   <path d="m2.9688-0.73438h-1.625l-0.26562 0.73438h-1.0469l1.5-4.0625h1.25l1.5 4.0625h-1.0469zm-1.375-0.75h1.1094l-0.54688-1.625z"/>
  </symbol>
  <symbol id="i" overflow="visible">
   <path d="m3.2812-2.5312c0.125-0.1875 0.26953-0.32812 0.4375-0.42188 0.17578-0.10156 0.36328-0.15625 0.5625-0.15625 0.35156 0 0.61719 0.10938 0.79688 0.32812 0.1875 0.21094 0.28125 0.51562 0.28125 0.92188v1.8594h-0.98438v-1.5938-0.0625c0.007812-0.03125 0.015625-0.066406 0.015625-0.10938 0-0.21875-0.039063-0.375-0.10938-0.46875-0.0625-0.09375-0.16406-0.14062-0.29688-0.14062-0.1875 0-0.33594 0.078125-0.4375 0.23438-0.09375 0.14844-0.14844 0.35938-0.15625 0.64062v1.5h-0.96875v-1.5938c0-0.33203-0.03125-0.54688-0.09375-0.64062-0.054687-0.09375-0.15234-0.14062-0.29688-0.14062-0.1875 0-0.33594 0.078125-0.4375 0.23438-0.10547 0.14844-0.15625 0.35938-0.15625 0.64062v1.5h-0.96875v-3.0469h0.96875v0.45312c0.125-0.17578 0.25781-0.30469 0.40625-0.39062 0.15625-0.082031 0.32812-0.125 0.51562-0.125 0.20703 0 0.39062 0.054687 0.54688 0.15625 0.16406 0.09375 0.28906 0.23438 0.375 0.42188z"/>
  </symbol>
  <symbol id="h" overflow="visible">
   <path d="m3.5312-1.8594v1.8594h-0.98438v-1.4062c0-0.26953-0.007813-0.45312-0.015625-0.54688-0.011719-0.10156-0.03125-0.17969-0.0625-0.23438-0.042969-0.0625-0.09375-0.10938-0.15625-0.14062s-0.13672-0.046875-0.21875-0.046875c-0.21094 0-0.37109 0.078125-0.48438 0.23438-0.11719 0.15625-0.17188 0.37109-0.17188 0.64062v1.5h-0.96875v-4.2188h0.96875v1.625c0.14453-0.17578 0.30078-0.30469 0.46875-0.39062 0.16406-0.082031 0.34766-0.125 0.54688-0.125 0.35156 0 0.61719 0.10938 0.79688 0.32812 0.1875 0.21094 0.28125 0.51562 0.28125 0.92188z"/>
  </symbol>
  <symbol id="u" overflow="visible">
   <path d="m2.8438-2.9531v0.75c-0.21094-0.09375-0.41406-0.16016-0.60938-0.20312-0.1875-0.039062-0.37109-0.0625-0.54688-0.0625-0.17969 0-0.3125 0.027344-0.40625 0.078125-0.09375 0.042969-0.14062 0.10938-0.14062 0.20312 0 0.085938 0.03125 0.14844 0.09375 0.1875 0.070313 0.042969 0.19531 0.070312 0.375 0.078125l0.17188 0.03125c0.5 0.0625 0.83203 0.16797 1 0.3125 0.17578 0.14844 0.26562 0.375 0.26562 0.6875 0 0.32422-0.12109 0.57031-0.35938 0.73438-0.24219 0.15625-0.59375 0.23438-1.0625 0.23438-0.21094 0-0.42188-0.015625-0.64062-0.046875-0.21094-0.03125-0.42969-0.078125-0.65625-0.14062v-0.73438c0.19531 0.09375 0.39453 0.16797 0.59375 0.21875 0.20703 0.042969 0.41406 0.0625 0.625 0.0625 0.19531 0 0.34375-0.023438 0.4375-0.078125 0.09375-0.050781 0.14062-0.12891 0.14062-0.23438 0-0.09375-0.039062-0.16016-0.10938-0.20312-0.0625-0.039063-0.19531-0.070313-0.39062-0.09375l-0.17188-0.015625c-0.42969-0.0625-0.73047-0.16406-0.90625-0.3125-0.17969-0.14453-0.26562-0.36719-0.26562-0.67188 0-0.3125 0.10938-0.54688 0.32812-0.70312 0.22656-0.15625 0.57031-0.23438 1.0312-0.23438 0.17578 0 0.36328 0.015625 0.5625 0.046875 0.19531 0.023438 0.41016 0.058594 0.64062 0.10938z"/>
  </symbol>
  <symbol id="t" overflow="visible">
   <path d="m3.3281-3.9219v0.85938c-0.21875-0.10156-0.4375-0.17969-0.65625-0.23438-0.21094-0.050781-0.40625-0.078125-0.59375-0.078125-0.25 0-0.4375 0.039062-0.5625 0.10938-0.11719 0.0625-0.17188 0.16797-0.17188 0.3125 0 0.11719 0.039062 0.20312 0.125 0.26562 0.082031 0.054688 0.22656 0.10547 0.4375 0.15625l0.45312 0.078125c0.44531 0.09375 0.76562 0.23438 0.95312 0.42188s0.28125 0.44922 0.28125 0.78125c0 0.44922-0.13672 0.78125-0.40625 1-0.26172 0.21875-0.66406 0.32812-1.2031 0.32812-0.26172 0-0.52344-0.027344-0.78125-0.078125-0.25-0.039062-0.50781-0.11328-0.76562-0.21875v-0.875c0.25781 0.13672 0.50781 0.24219 0.75 0.3125 0.23828 0.074219 0.47266 0.10938 0.70312 0.10938 0.22656 0 0.39844-0.035156 0.51562-0.10938 0.125-0.082031 0.1875-0.19531 0.1875-0.34375 0-0.125-0.042969-0.21875-0.125-0.28125-0.085938-0.070312-0.25-0.13281-0.5-0.1875l-0.40625-0.09375c-0.39844-0.082031-0.6875-0.21875-0.875-0.40625-0.1875-0.19531-0.28125-0.45703-0.28125-0.78125 0-0.40625 0.12891-0.71094 0.39062-0.92188 0.25781-0.21875 0.63281-0.32812 1.125-0.32812 0.21875 0 0.44141 0.015625 0.67188 0.046875 0.23828 0.03125 0.48438 0.085937 0.73438 0.15625z"/>
  </symbol>
  <symbol id="g" overflow="visible">
   <path d="m0.4375-1.1875v-1.8594h0.96875v0.3125 0.625 0.48438c0 0.25 0.003906 0.43359 0.015625 0.54688 0.007813 0.10547 0.03125 0.17969 0.0625 0.21875 0.039063 0.0625 0.09375 0.11719 0.15625 0.15625 0.070313 0.03125 0.14844 0.046875 0.23438 0.046875 0.19531 0 0.35156-0.078125 0.46875-0.23438 0.11328-0.15625 0.17188-0.375 0.17188-0.65625v-1.5h0.98438v3.0469h-0.98438v-0.4375c-0.14844 0.17969-0.30469 0.30859-0.46875 0.39062-0.15625 0.082031-0.33594 0.125-0.53125 0.125-0.35547 0-0.625-0.10156-0.8125-0.3125-0.17969-0.21875-0.26562-0.53516-0.26562-0.95312z"/>
  </symbol>
  <symbol id="s" overflow="visible">
   <path d="m0.46875-3.0469h0.96875v3.0469h-0.96875zm0-1.1719h0.96875v0.78125h-0.96875z"/>
  </symbol>
  <symbol id="c" overflow="visible">
   <path d="m1.9219-2.4219c-0.21875 0-0.38672 0.078125-0.5 0.23438-0.11719 0.15625-0.17188 0.38281-0.17188 0.67188 0 0.29297 0.054688 0.51562 0.17188 0.67188 0.11328 0.15625 0.28125 0.23438 0.5 0.23438 0.20703 0 0.36328-0.078125 0.46875-0.23438 0.11328-0.15625 0.17188-0.37891 0.17188-0.67188 0-0.28906-0.058594-0.51562-0.17188-0.67188-0.10547-0.15625-0.26172-0.23438-0.46875-0.23438zm0-0.6875c0.51953 0 0.92578 0.14062 1.2188 0.42188 0.28906 0.28125 0.4375 0.67188 0.4375 1.1719s-0.14844 0.89062-0.4375 1.1719c-0.29297 0.28125-0.69922 0.42188-1.2188 0.42188-0.53125 0-0.94922-0.14062-1.25-0.42188-0.29297-0.28125-0.4375-0.67188-0.4375-1.1719s0.14453-0.89062 0.4375-1.1719c0.30078-0.28125 0.71875-0.42188 1.25-0.42188z"/>
  </symbol>
  <symbol id="r" overflow="visible">
   <path d="m2.4688-4.2188v0.625h-0.53125c-0.14844 0-0.24609 0.027344-0.29688 0.078125-0.054687 0.054687-0.078125 0.14062-0.078125 0.26562v0.20312h0.82812v0.70312h-0.82812v2.3438h-0.96875v-2.3438h-0.48438v-0.70312h0.48438v-0.20312c0-0.33203 0.085938-0.57812 0.26562-0.73438 0.1875-0.15625 0.47266-0.23438 0.85938-0.23438z"/>
  </symbol>
  <symbol id="q" overflow="visible">
   <path d="m0.51562-4.0625h1.1562l1.4844 2.7812v-2.7812h0.98438v4.0625h-1.1562l-1.4844-2.7812v2.7812h-0.98438z"/>
  </symbol>
  <symbol id="p" overflow="visible">
   <path d="m3.5312-1.8594v1.8594h-0.98438v-1.4219c0-0.25781-0.007813-0.4375-0.015625-0.53125-0.011719-0.10156-0.03125-0.17969-0.0625-0.23438-0.042969-0.0625-0.09375-0.10938-0.15625-0.14062s-0.13672-0.046875-0.21875-0.046875c-0.21094 0-0.37109 0.078125-0.48438 0.23438-0.11719 0.15625-0.17188 0.37109-0.17188 0.64062v1.5h-0.96875v-3.0469h0.96875v0.45312c0.14453-0.17578 0.30078-0.30469 0.46875-0.39062 0.16406-0.082031 0.34766-0.125 0.54688-0.125 0.35156 0 0.61719 0.10938 0.79688 0.32812 0.1875 0.21094 0.28125 0.51562 0.28125 0.92188z"/>
  </symbol>
  <symbol id="o" overflow="visible">
   <path d="m0.51562-4.0625h1.7344c0.50781 0 0.89844 0.11719 1.1719 0.34375 0.28125 0.23047 0.42188 0.55859 0.42188 0.98438 0 0.42969-0.14062 0.75781-0.42188 0.98438-0.27344 0.23047-0.66406 0.34375-1.1719 0.34375h-0.6875v1.4062h-1.0469zm1.0469 0.76562v1.125h0.57812c0.19531 0 0.34766-0.046875 0.45312-0.14062 0.11328-0.09375 0.17188-0.23438 0.17188-0.42188 0-0.17578-0.058594-0.3125-0.17188-0.40625-0.10547-0.10156-0.25781-0.15625-0.45312-0.15625z"/>
  </symbol>
  <symbol id="n" overflow="visible">
   <path d="m0.46875-3.0469h0.96875v3c0 0.40625-0.10156 0.71094-0.29688 0.92188-0.1875 0.21875-0.46875 0.32812-0.84375 0.32812h-0.48438v-0.64062h0.17188c0.1875 0 0.3125-0.042969 0.375-0.125 0.070313-0.085938 0.10938-0.24609 0.10938-0.48438zm0-1.1719h0.96875v0.78125h-0.96875z"/>
  </symbol>
  <symbol id="m" overflow="visible">
   <path d="m2.9219-2.9531v0.79688c-0.125-0.09375-0.25781-0.16016-0.39062-0.20312-0.13672-0.039063-0.27734-0.0625-0.42188-0.0625-0.27344 0-0.48438 0.085937-0.64062 0.25-0.14844 0.15625-0.21875 0.375-0.21875 0.65625s0.070312 0.50781 0.21875 0.67188c0.15625 0.15625 0.36719 0.23438 0.64062 0.23438 0.15625 0 0.30078-0.019531 0.4375-0.0625 0.13281-0.050781 0.25781-0.125 0.375-0.21875v0.79688c-0.14844 0.0625-0.29688 0.10156-0.45312 0.125-0.15625 0.03125-0.32031 0.046875-0.48438 0.046875-0.54297 0-0.96875-0.14062-1.2812-0.42188s-0.46875-0.67188-0.46875-1.1719 0.15625-0.89062 0.46875-1.1719 0.73828-0.42188 1.2812-0.42188c0.16406 0 0.32031 0.015625 0.46875 0.046875 0.15625 0.023438 0.3125 0.058594 0.46875 0.10938z"/>
  </symbol>
 </defs>
 <g>
  <path d="m417.05 365.32c5.6172-7.2109 8.082-16.172 6.9414-25.23-1.1406-9.0664-5.75-17.145-12.984-22.75-14.93-11.562-36.492-8.8555-48.074 6.0273-5.6172 7.2031-8.0859 16.16-6.9492 25.219 1.1367 9.0703 5.75 17.152 12.988 22.762 6.2383 4.832 13.637 7.1719 20.98 7.1719 10.23 0 20.355-4.5391 27.098-13.199z"/>
  <path d="m353.51 391.16c-14.918-11.562-36.484-8.8594-48.078 6.0273-5.6133 7.2109-8.0781 16.176-6.9375 25.238 1.1406 9.0664 5.75 17.148 12.98 22.754 6.2383 4.832 13.637 7.1719 20.98 7.1719 10.227 0 20.352-4.5391 27.094-13.199 5.6172-7.207 8.082-16.164 6.9492-25.223-1.1367-9.0703-5.75-17.156-12.988-22.77z"/>
  <path d="m491.76 379.91c-14.926-11.562-36.492-8.8555-48.074 6.0273-5.6172 7.2109-8.082 16.172-6.9453 25.234 1.1406 9.0664 5.75 17.145 12.984 22.746 6.2383 4.832 13.637 7.1719 20.98 7.1719 10.227 0 20.352-4.5352 27.094-13.195 5.6172-7.2031 8.0859-16.16 6.9492-25.223-1.1367-9.0742-5.75-17.156-12.988-22.762z"/>
  <path d="m434.25 453.73c-14.906-11.555-36.473-8.8516-48.078 6.0273-5.6133 7.2109-8.0781 16.176-6.9375 25.238 1.1406 9.0664 5.75 17.148 12.98 22.754 6.2383 4.832 13.637 7.1719 20.98 7.1719 10.227 0 20.352-4.5391 27.094-13.199 5.6211-7.2109 8.0859-16.176 6.9492-25.234-1.1406-9.0703-5.75-17.152-12.988-22.758z"/>
  <path d="m614.81 419.71-110.88-244.69c12.371-9.6367 17.742-26.062 13.098-41.277l-34.816-114.11c-2.2812-7.4688-7.6445-13.66-14.719-16.988-7.0898-3.3398-15.305-3.5273-22.543-0.51563l-70.379 29.277c-7.2344 3.0078-12.887 8.9648-15.496 16.34-2.6094 7.3633-1.9766 15.527 1.7383 22.406l45.453 84.027c-6.7969 6.5312-14.469 12.152-22.852 16.789v-10.719c0-14.238-11.613-25.824-25.891-25.824h-9.1055c3.2305-4.0312 5.1719-9.1289 5.1719-14.68 0-10.738-7.1953-19.824-17.125-22.645 1.2852-3.9414 3.1523-7.5664 5.5859-10.82 2.125-2.8477 4.6914-5.4062 7.6211-7.5977 1.9648-1.4688 2.3672-4.2539 0.89844-6.2227-1.4727-1.9648-4.2578-2.3633-6.2227-0.89844-3.6172 2.707-6.7852 5.8672-9.418 9.3945-3.4219 4.5742-5.9297 9.7344-7.5039 15.363-11.828 1.2695-21.07 11.289-21.07 23.426 0 5.5508 1.9453 10.648 5.1719 14.68h-50.453c3.2266-4.0312 5.1719-9.1289 5.1719-14.68 0-12.137-9.2422-22.156-21.07-23.426-1.5742-5.625-4.082-10.785-7.5-15.355-2.6367-3.5352-5.8086-6.6953-9.4219-9.4023-1.9688-1.4688-4.75-1.0703-6.2227 0.89844-1.4688 1.9648-1.0703 4.75 0.89844 6.2227 2.9297 2.1914 5.4961 4.7461 7.625 7.6055 2.4297 3.25 4.2969 6.875 5.582 10.816-9.9219 2.8203-17.113 11.906-17.113 22.645 0 5.5508 1.9453 10.648 5.1719 14.68l-50.465-0.003906c3.2266-4.0312 5.1719-9.1289 5.1719-14.68 0-10.738-7.1875-19.824-17.113-22.645 1.2852-3.9414 3.1523-7.5664 5.5859-10.82 2.1289-2.8516 4.6953-5.4062 7.625-7.5977 1.9648-1.4688 2.3672-4.2539 0.89844-6.2227-1.4727-1.9648-4.2578-2.3633-6.2227-0.89844-3.6133 2.7031-6.7812 5.8672-9.418 9.3945-3.4219 4.5781-5.9297 9.7383-7.5039 15.363-11.84 1.2695-21.086 11.289-21.086 23.426 0 5.5508 1.9453 10.648 5.1719 14.68h-9.1055c-14.277 0-25.891 11.586-25.891 25.824v135.72c0 14.246 11.613 25.836 25.891 25.836h58.367l-9.6484 12.395c-5.0117 6.4375-7.2109 14.438-6.1953 22.523 0.98438 7.8242 4.8711 14.82 10.961 19.801-36.328 50.051-62.805 88.305-78.707 113.72-7.6367 12.203-13.031 21.766-16.027 28.414-2.8867 6.3984-4.9883 12.789-0.86719 16.184 1.2031 0.99219 2.5586 1.4141 4.0195 1.4141 3.543 0 7.6992-2.4844 11.789-5.3516 6.0195-4.2227 14.469-11.359 25.121-21.215 22.215-20.551 55.203-54.023 98.082-99.508l185.1 143.43c5.5664 4.3086 12.164 6.3906 18.719 6.3906 9.1289 0 18.168-4.0469 24.191-11.777l93.254-119.75 6.5898 17.172c2.0352 5.3086 6.0352 9.4688 11.273 11.715 2.6602 1.1406 5.457 1.7109 8.2578 1.7109 2.7227 0 5.4453-0.53906 8.043-1.6211l23.746-9.8789c5.2695-2.1953 9.3242-6.3242 11.414-11.629 2.082-5.293 1.9375-11.062-0.41016-16.238zm-166.44-409.37c4.9258-2.0508 10.516-1.9219 15.34 0.35156 4.8789 2.2969 8.4336 6.3984 10.004 11.543l34.812 114.11c3.7461 12.273-1.0195 25.566-11.582 32.762-5.9414 0.14063-11.777 1.1562-17.418 3.0273l-62.238-148.86zm-79.734 55.586c-2.5586-4.7344-2.9805-10.137-1.1797-15.207 1.8008-5.082 5.543-9.0234 10.531-11.102l31.094-12.934 62.234 148.86c-5.2852 2.6758-10.109 6.0938-14.391 10.207-12.562 2.4297-25.391-3.5547-31.512-14.852zm19.254 177.81c22.805-25.418 27.141-54.887 27.234-73.18l2.4727 4.5703c6.7891 12.539 19.922 20.07 33.773 20.07 1.6094 0 3.2266-0.11328 4.8438-0.32031l68.414 178.21-150.45-116.57c4.9414-3.8438 9.5391-8.1211 13.715-12.777zm-8.0312-4.4023c-4.6953 5.0078-9.9258 9.5234-15.586 13.418-8.6445 5.957-18.281 10.551-28.633 13.66-2.9609 0.88672-5.9531 1.6367-8.9258 2.2461-2.5-4.7734-5.9453-9.0625-10.141-12.543-4.6875-3.8594-9.5039-6.0742-13.523-7.3594 1.5742-7.1328 5.3398-19.219 14.082-30.918 4.875-6.5234 10.738-12.148 17.43-16.715 4.0898-2.7969 8.5156-5.1719 13.156-7.1211 3.6602 1.4805 6.2695 3.5312 7.7656 6.1094 1.1875 2.0586 1.293 3.8242 1.4258 6.0586 0.16797 2.8359 0.375 6.3672 2.9727 10.293 2.6172 3.9609 5.6719 5.3672 8.3711 6.6094 1.9531 0.89844 3.6406 1.6758 5.5586 3.5234 3.0234 2.918 5.0547 7.207 6.0469 12.738zm-60.898 33.645-7.7734 9.3789c-1.8008-3.2734-4.1367-6.2578-6.9727-8.8125-0.40234-0.35156-0.80469-0.70703-1.168-1.0039-0.42578-0.35937-0.87109-0.70703-1.3398-1.0664-3.0195-2.2695-6.375-3.9844-9.9219-5.1328l7.7656-9.3633c3.2852 0.95313 7.3867 2.7188 11.359 5.9883 3.3359 2.7734 6.0859 6.1992 8.0508 10.012zm-208.23-112.72c0-9.3359 7.6289-16.934 17-16.934h229.79c9.375 0 17 7.5977 17 16.934v15.16c-5.9375 2.6328-12.168 4.793-18.559 6.4375-3.4219 0.87891-6.793 1.9648-10.008 3.2383-5.8164 2.2969-11.344 5.2227-16.418 8.6953-6.2539 4.2695-11.852 9.375-16.711 15.188l-0.082031-0.0625c-13.016-10.082-31.688-8-42.184 4.4961-3.0508 1.1953-6.0859 1.7617-9.4648 1.7617-8.4297 0-13.547-3.5664-19.469-7.6953-6.25-4.3555-13.336-9.293-24.566-9.293-11.215 0-18.297 4.9336-24.539 9.2891-5.9258 4.1328-11.043 7.6992-19.484 7.6992-8.1836 0-13.387-3.4141-19.414-7.3672-6.2383-4.0938-13.312-8.7305-24.25-9.6055-5.9922-0.48828-12.238 0.25391-18.641 2.1953l0.003907-40.137zm0 101.66v-12.355h131.64l-9.625 12.355zm68.348 93.699c-0.71875-5.7266 0.83984-11.395 4.3906-15.953l15.246-19.566 78.09-100.27c0.035156-0.042969 0.078125-0.10547 0.12109-0.16406 7.3555-9.3398 20.953-11.016 30.367-3.7266l0.19922 0.15625c-9.2383 13.789-12.621 27.473-13.777 33.996l-12.109 14.598c-11.008-0.11719-21.328 4.9375-27.965 13.801-24.867 33.219-47.438 63.738-67.168 90.816-4.0977-3.5039-6.7227-8.3125-7.3945-13.688zm41.844 45.539c-41.027 43.586-73.172 76.379-95.543 97.469-18.82 17.738-27.938 24.574-32.285 27.18 1.7461-4.7344 6.7305-14.891 20.516-36.469 16.426-25.707 42.441-63.07 77.32-111.05 20.34-27.961 43.828-59.746 69.82-94.465 4.8125-6.4258 12.566-10.242 20.59-10.242 0.64453 0 1.293 0.023437 1.9375 0.074219 4.7461 0.35938 9.2695 2.0664 13.047 4.9102 0.32031 0.24609 0.64844 0.49609 1.0078 0.80078 0.34375 0.28125 0.67188 0.57422 0.96094 0.82812 3.5273 3.1836 6.0508 7.2852 7.3008 11.859 0 0.003907 0.003907 0.007813 0.003907 0.015625 1.6133 5.832 1.082 12.066-1.5039 17.582-1.0703 2.3125-2.5 4.4531-4.2539 6.3672-8.1523 8.8984-16.031 17.473-23.625 25.723-12.965 14.059-25.227 27.285-36.438 39.305-6.5273 6.9844-12.816 13.68-18.855 20.109zm224.7 141.61c-7.3398 9.4219-21 11.133-30.449 3.8203l-184.43-142.91c4.4492-4.7383 9.0273-9.6211 13.734-14.66 2.3672 0.50781 4.7617 0.76562 7.1406 0.76562 10.422 0 20.59-4.7539 27.168-13.203 6.7812-8.7109 8.8828-20.277 5.7578-30.785 7.0508-7.6602 14.324-15.582 21.844-23.789 1.7188-1.875 3.2031-3.918 4.4414-6.0859 9.9375-0.47656 19.293-5.2695 25.453-13.176 6.4648-8.293 8.6758-19.129 6.1953-29.207 8.5664-2.9414 16.637-6.8555 24.094-11.668l164.19 127.22 11.398 29.688zm139.68-117.52c-0.62891 1.5273-1.8203 2.7227-3.3633 3.3594-3.1562 1.3203-6.8008-0.17188-8.1172-3.3203-1.3086-3.1406 0.19141-6.7695 3.3359-8.0859 0.78125-0.32422 1.5898-0.47656 2.3828-0.47656 2.4336 0 4.75 1.4336 5.7422 3.8086v0.003906c0.63672 1.5195 0.64453 3.1914 0.019531 4.7109z"/>
  <use x="83.316406" y="576.667969" xlink:href="#v"/>
  <use x="87.394531" y="576.667969" xlink:href="#d"/>
  <use x="90.132812" y="576.667969" xlink:href="#b"/>
  <use x="93.902344" y="576.667969" xlink:href="#l"/>
  <use x="97.652344" y="576.667969" xlink:href="#a"/>
  <use x="100.304688" y="576.667969" xlink:href="#b"/>
  <use x="104.074219" y="576.667969" xlink:href="#f"/>
  <use x="109.984375" y="576.667969" xlink:href="#k"/>
  <use x="113.960938" y="576.667969" xlink:href="#e"/>
  <use x="119.519531" y="576.667969" xlink:href="#j"/>
  <use x="123.816406" y="576.667969" xlink:href="#i"/>
  <use x="129.609375" y="576.667969" xlink:href="#b"/>
  <use x="133.375" y="576.667969" xlink:href="#a"/>
  <use x="136.03125" y="576.667969" xlink:href="#h"/>
  <use x="139.988281" y="576.667969" xlink:href="#e"/>
  <use x="143.609375" y="576.667969" xlink:href="#u"/>
  <use x="146.914062" y="576.667969" xlink:href="#a"/>
  <use x="151.503906" y="576.667969" xlink:href="#t"/>
  <use x="155.507812" y="576.667969" xlink:href="#a"/>
  <use x="158.164062" y="576.667969" xlink:href="#g"/>
  <use x="162.117188" y="576.667969" xlink:href="#f"/>
  <use x="166.09375" y="576.667969" xlink:href="#s"/>
  <use x="168" y="576.667969" xlink:href="#c"/>
  <use x="83.316406" y="582.222656" xlink:href="#r"/>
  <use x="85.734375" y="582.222656" xlink:href="#d"/>
  <use x="88.472656" y="582.222656" xlink:href="#c"/>
  <use x="92.289062" y="582.222656" xlink:href="#i"/>
  <use x="100.011719" y="582.222656" xlink:href="#a"/>
  <use x="102.667969" y="582.222656" xlink:href="#h"/>
  <use x="106.625" y="582.222656" xlink:href="#b"/>
  <use x="112.328125" y="582.222656" xlink:href="#q"/>
  <use x="116.976562" y="582.222656" xlink:href="#c"/>
  <use x="120.792969" y="582.222656" xlink:href="#g"/>
  <use x="124.75" y="582.222656" xlink:href="#p"/>
  <use x="130.636719" y="582.222656" xlink:href="#o"/>
  <use x="134.710938" y="582.222656" xlink:href="#d"/>
  <use x="137.449219" y="582.222656" xlink:href="#c"/>
  <use x="141.265625" y="582.222656" xlink:href="#n"/>
  <use x="143.171875" y="582.222656" xlink:href="#b"/>
  <use x="146.941406" y="582.222656" xlink:href="#m"/>
  <use x="150.234375" y="582.222656" xlink:href="#a"/>
 </g>
</svg>
